<?xml version="1.0" encoding="UTF-8" standalone="no"?>
<svg
   xmlns:dc="http://purl.org/dc/elements/1.1/"
   xmlns:cc="http://creativecommons.org/ns#"
   xmlns:rdf="http://www.w3.org/1999/02/22-rdf-syntax-ns#"
   xmlns:svg="http://www.w3.org/2000/svg"
   xmlns="http://www.w3.org/2000/svg"
   xmlns:xlink="http://www.w3.org/1999/xlink"
   xmlns:sodipodi="http://sodipodi.sourceforge.net/DTD/sodipodi-0.dtd"
   xmlns:inkscape="http://www.inkscape.org/namespaces/inkscape"
   width="20"
   height="20"
   id="svg5738"
   version="1.1"
   inkscape:version="1.0beta1 (32d4812, 2019-09-19)"
   sodipodi:docname="open.svg">
  <defs
     id="defs5740">
    <linearGradient
       inkscape:collect="always"
       xlink:href="#linearGradient4103"
       id="linearGradient4184"
       gradientUnits="userSpaceOnUse"
       x1="3003"
       y1="10"
       x2="3017"
       y2="10"
       gradientTransform="translate(1,2.6171874e-6)" />
    <linearGradient
       inkscape:collect="always"
       id="linearGradient4103">
      <stop
         style="stop-color:#000000;stop-opacity:1;"
         offset="0"
         id="stop4105" />
      <stop
         style="stop-color:#000000;stop-opacity:0;"
         offset="1"
         id="stop4107" />
    </linearGradient>
  </defs>
  <sodipodi:namedview
     id="base"
     pagecolor="#ffffff"
     bordercolor="#666666"
     borderopacity="1.0"
     inkscape:pageopacity="0.0"
     inkscape:pageshadow="2"
     inkscape:zoom="35.146383"
     inkscape:cx="12.14496"
     inkscape:cy="7.8224077"
     inkscape:document-units="px"
     inkscape:current-layer="svg5738"
     showgrid="false"
     inkscape:window-width="1600"
     inkscape:window-height="1209"
     inkscape:window-x="806"
     inkscape:window-y="23"
     inkscape:window-maximized="0"
     showguides="false"
     inkscape:snap-bbox="true"
     inkscape:bbox-paths="true"
     inkscape:bbox-nodes="true"
     inkscape:object-paths="true"
     inkscape:object-nodes="true"
     inkscape:snap-smooth-nodes="true"
     inkscape:snap-others="false"
     inkscape:snap-nodes="false"
     inkscape:document-rotation="0">
    <inkscape:grid
       type="xygrid"
       id="grid5746"
       empspacing="2"
       visible="true"
       enabled="true"
       snapvisiblegridlinesonly="true"
       spacingx="0.5px"
       spacingy="0.5px"
       color="#0000ff"
       opacity="0.05882353" />
  </sodipodi:namedview>
  <metadata
     id="metadata5743">
    <rdf:RDF>
      <cc:Work
         rdf:about="">
        <dc:format>image/svg+xml</dc:format>
        <dc:type
           rdf:resource="http://purl.org/dc/dcmitype/StillImage" />
        <dc:title></dc:title>
      </cc:Work>
    </rdf:RDF>
  </metadata>
  <g
     inkscape:label="Layer 1"
     inkscape:groupmode="layer"
     id="layer1"
     transform="translate(0,-1032.3622)" />
  <path
     style="stroke-width:0.557023"
     inkscape:connector-curvature="0"
     d="m 4.3677257,4.7668111 c -0.9225696,0 -1.6710695,0.7484999 -1.6710695,1.6710695 v 7.7983244 c 0,0.576606 0.3024463,1.077056 0.7484999,1.37515 0.069628,0.0457 0.132728,0.08704 0.2088837,0.12185 0.021759,0.01306 0.045693,0.02393 0.069628,0.03481 0.1936523,0.08921 0.4047124,0.139255 0.626651,0.139255 h 8.9123702 c 0.892108,0 1.725466,-0.53744 2.07143,-1.357744 v -0.01741 l 1.72329,-4.6302551 v -0.017407 c 0.165367,-0.4068881 0.169719,-0.8790522 -0.06963,-1.235895 -0.24152,-0.3633636 -0.685398,-0.539609 -1.131452,-0.539609 h -0.905162 c 0,-0.9225696 -0.7485,-1.6710694 -1.671069,-1.6710694 H 8.8239109 c 0,-0.9225696 -0.7484999,-1.6710695 -1.6710695,-1.6710695 z m 2.5762321,4.4561852 h 8.9123702 c 0.169719,0 0.204533,0.045693 0.208884,0.052221 0.0044,0.00652 0.03047,0.036992 -0.03481,0.1914767 v 0.034814 l -1.723291,4.612849 -0.01741,0.01741 c -0.143607,0.304621 -0.694103,0.661464 -1.027011,0.661464 H 4.3503187 c -0.1697177,0 -0.1871247,-0.0457 -0.1914768,-0.05222 -0.00435,-0.0065 -0.030461,-0.03699 0.034814,-0.191476 v -0.01741 L 5.9169462,9.9018684 c 0.00217,-0.00652 0.015232,-0.010879 0.017407,-0.017407 0.1436076,-0.304622 0.676696,-0.661465 1.0096046,-0.6614651 z"
     id="path937" />
</svg>
