<?xml version="1.0" encoding="UTF-8" standalone="no"?>
<svg
   xmlns:dc="http://purl.org/dc/elements/1.1/"
   xmlns:cc="http://creativecommons.org/ns#"
   xmlns:rdf="http://www.w3.org/1999/02/22-rdf-syntax-ns#"
   xmlns:svg="http://www.w3.org/2000/svg"
   xmlns="http://www.w3.org/2000/svg"
   xmlns:xlink="http://www.w3.org/1999/xlink"
   xmlns:sodipodi="http://sodipodi.sourceforge.net/DTD/sodipodi-0.dtd"
   xmlns:inkscape="http://www.inkscape.org/namespaces/inkscape"
   sodipodi:docname="save.svg"
   inkscape:version="1.0beta1 (32d4812, 2019-09-19)"
   version="1.1"
   id="svg5738"
   height="20"
   width="20">
  <defs
     id="defs5740">
    <linearGradient
       gradientTransform="translate(1,2.6171874e-6)"
       y2="10"
       x2="3017"
       y1="10"
       x1="3003"
       gradientUnits="userSpaceOnUse"
       id="linearGradient4184"
       xlink:href="#linearGradient4103"
       inkscape:collect="always" />
    <linearGradient
       id="linearGradient4103"
       inkscape:collect="always">
      <stop
         id="stop4105"
         offset="0"
         style="stop-color:#000000;stop-opacity:1;" />
      <stop
         id="stop4107"
         offset="1"
         style="stop-color:#000000;stop-opacity:0;" />
    </linearGradient>
  </defs>
  <sodipodi:namedview
     inkscape:document-rotation="0"
     inkscape:snap-nodes="false"
     inkscape:snap-others="false"
     inkscape:snap-smooth-nodes="true"
     inkscape:object-nodes="true"
     inkscape:object-paths="true"
     inkscape:bbox-nodes="true"
     inkscape:bbox-paths="true"
     inkscape:snap-bbox="true"
     showguides="false"
     inkscape:window-maximized="0"
     inkscape:window-y="23"
     inkscape:window-x="0"
     inkscape:window-height="1209"
     inkscape:window-width="1600"
     showgrid="false"
     inkscape:current-layer="svg5738"
     inkscape:document-units="px"
     inkscape:cy="19.346036"
     inkscape:cx="26.531978"
     inkscape:zoom="13.244698"
     inkscape:pageshadow="2"
     inkscape:pageopacity="0.0"
     borderopacity="1.0"
     bordercolor="#666666"
     pagecolor="#ffffff"
     id="base">
    <inkscape:grid
       opacity="0.05882353"
       color="#0000ff"
       spacingy="0.5px"
       spacingx="0.5px"
       snapvisiblegridlinesonly="true"
       enabled="true"
       visible="true"
       empspacing="2"
       id="grid5746"
       type="xygrid" />
  </sodipodi:namedview>
  <metadata
     id="metadata5743">
    <rdf:RDF>
      <cc:Work
         rdf:about="">
        <dc:format>image/svg+xml</dc:format>
        <dc:type
           rdf:resource="http://purl.org/dc/dcmitype/StillImage" />
        <dc:title></dc:title>
      </cc:Work>
    </rdf:RDF>
  </metadata>
  <g
     transform="translate(0,-1032.3622)"
     id="layer1"
     inkscape:groupmode="layer"
     inkscape:label="Layer 1" />
  <path
     style="stroke-width:0.0266243"
     inkscape:connector-curvature="0"
     d="M 16.168214,4.9448607 15.11978,3.8964287 C 14.693794,3.4698153 14.116172,3.2307175 13.513486,3.2307175 H 4.7643016 c -0.8627922,0 -1.5619904,0.699198 -1.5619904,1.5619908 V 15.300341 c 0,0.862791 0.6991982,1.561991 1.5619904,1.561991 H 15.271935 c 0.862791,0 1.561991,-0.6992 1.561991,-1.561991 V 6.5511567 c 0,-0.6026857 -0.2391,-1.1803085 -0.665712,-1.606296 z M 5.4742124,6.7805812 V 5.3606576 c 0,-0.2351455 0.1908416,-0.4259885 0.4259887,-0.4259885 h 5.9638309 c 0.235146,0 0.425988,0.190843 0.425988,0.4259885 v 1.4199235 c 0,0.2351485 -0.190842,0.4259886 -0.425988,0.4259886 H 5.9002011 c -0.2351471,0 -0.4259887,-0.1908401 -0.4259887,-0.4259885 z m 4.5439046,7.8098498 c -1.4113952,0 -2.5559255,-1.144531 -2.5559255,-2.555929 0,-1.411503 1.1445303,-2.5559267 2.5559255,-2.5559267 1.411398,0 2.555928,1.1444237 2.555928,2.5559267 0,1.411398 -1.14453,2.555929 -2.555928,2.555929 z m 0,0"
     id="path136" />
</svg>
